<svg width="141" height="94" viewBox="0 0 141 94" xmlns="http://www.w3.org/2000/svg"><g fill="none" fill-rule="evenodd"><path d="M37.65 63.819a40.085 40.085 0 0 1-7.642-23.606C30.008 18.003 47.982 0 70.152 0c22.17 0 40.144 18.003 40.144 40.213a40.085 40.085 0 0 1-7.641 23.606L83.378 32.455l-1.862 3.148 1.89 8.758-13.254-22.7-8.195 13.862 1.907 8.846-6.943-11.896L37.65 63.819z" fill="#8277F6" fill-rule="nonzero"/><path d="M12.001 93.71L3.722 81.293V93.71H.044V75.705h4.253l7.826 11.75v-11.75h3.672V93.71h-3.794zm5.986-6.117c0-3.657 3.011-6.439 6.737-6.439s6.676 2.71 6.676 6.37c0 3.702-3.013 6.462-6.714 6.462-3.7 0-6.69-2.69-6.69-6.393h-.009zm3.679-.046c0 1.862 1.357 3.15 3.034 3.15 1.678 0 3.013-1.288 3.013-3.15 0-1.862-1.357-3.128-3.035-3.128-1.677 0-3.016 1.288-3.016 3.128h.004zm18.521-6.117v3.518a6.473 6.473 0 0 0-1.15-.092c-1.725 0-2.92 1.193-2.92 3.472v5.382h-3.525V81.43h3.404v1.789h.046c.666-1.403 1.908-1.932 3.18-1.932.326.01.65.056.965.137v.006zm10.36 12.28v-1.564h-.045c-1.151 1.68-2.981 1.788-3.818 1.788-3.563 0-5.84-3.082-5.84-6.393 0-3.104 2.368-6.347 5.886-6.347.713 0 2.414.139 3.68 1.633h.046v-7.836h3.563V93.71h-3.472zm0-6.16c0-1.841-1.357-3.105-3.034-3.105-1.678 0-3.037 1.264-3.037 3.104s1.357 3.15 3.037 3.15c1.679 0 3.034-1.288 3.034-3.15z" fill="#2C3038"/><path fill="#8277F6" fill-rule="nonzero" d="M57.555 74.753h3.897V89.98h8.104v3.73H57.555zm20.453 5.733c3.9 0 7.021 2.858 7.021 6.707 0 3.898-3.18 6.803-7.069 6.803s-7.045-2.834-7.045-6.731c0-3.845 3.17-6.779 7.093-6.779zm-.024 10.048c1.767 0 3.18-1.357 3.18-3.317 0-1.96-1.429-3.293-3.196-3.293-1.766 0-3.18 1.356-3.18 3.293 0 1.938 1.43 3.321 3.196 3.321v-.004zm8.953-3.265c0-3.824 3.076-6.779 7.045-6.779 2.689 0 5.618 1.453 6.272 4.408l-3.438 1.041c-.292-.97-1.284-1.987-2.905-1.987-1.672 0-3.099 1.21-3.099 3.27 0 1.911 1.258 3.292 3.122 3.292a3.06 3.06 0 0 0 2.981-2.009l3.438 1.041C99.53 92.527 96.673 94 93.887 94c-4.06 0-6.95-2.882-6.95-6.731zm19.68.314v6.127h-3.775V73.978h3.775v11.888l4.474-5.084h4.817l-5.205 5.962 5.356 6.966h-4.77l-4.57-6.127zm13.528.703c.243 1.622 1.622 2.542 3.196 2.542 1.09 0 2.301-.654 2.736-1.719l3.098 1.065C128.33 92.668 125.932 94 123.39 94c-3.923 0-7.094-2.76-7.094-6.779 0-3.728 3.124-6.757 6.852-6.757 3.85 0 6.439 2.64 6.439 6.463.008.453-.008.906-.048 1.357l-9.394.002zm5.666-2.494c-.074-.944-.872-2.251-2.76-2.251a2.913 2.913 0 0 0-2.809 2.251h5.569zm14.449-1.307a6.81 6.81 0 0 0-1.21-.096c-1.816 0-3.074 1.258-3.074 3.655v5.666h-3.704V80.782h3.577v1.89h.048c.703-1.478 2.009-2.035 3.34-2.035.344.011.685.06 1.018.147l.006 3.7z"/></g></svg>